<?xml version="1.0" standalone="no"?>
<!DOCTYPE svg PUBLIC "-//W3C//DTD SVG 20010904//EN"
 "http://www.w3.org/TR/2001/REC-SVG-20010904/DTD/svg10.dtd">
<svg version="1.0" xmlns="http://www.w3.org/2000/svg"
 width="500.000000pt" height="500.000000pt" viewBox="0 0 500.000000 500.000000"
 preserveAspectRatio="xMidYMid meet">

<g transform="translate(0.000000,500.000000) scale(0.100000,-0.100000)"
fill="#000000" stroke="none">
<path d="M2525 4267 c-3 -7 -4 -154 -3 -327 l3 -315 23 -3 22 -3 0 330 c0 326
0 331 -20 331 -11 0 -23 -6 -25 -13z"/>
<path d="M2023 4223 c-14 -5 -18 -33 -5 -33 10 0 32 22 32 32 0 9 -8 9 -27 1z"/>
<path d="M3033 4133 c-25 -54 -93 -197 -150 -318 -57 -121 -107 -233 -109
-250 -6 -32 141 259 232 460 30 66 66 136 79 156 22 35 23 49 3 49 -5 0 -30
-44 -55 -97z"/>
<path d="M3150 3794 c-268 -289 -255 -274 -238 -290 12 -13 30 2 139 113 181
186 274 291 274 311 0 42 -39 12 -175 -134z"/>
<path d="M1774 3915 c-4 -10 33 -55 108 -132 62 -65 156 -162 208 -215 88 -92
120 -112 135 -88 4 6 -31 50 -77 98 -215 225 -343 352 -355 352 -8 0 -16 -7
-19 -15z"/>
<path d="M3605 3663 c-66 -30 -151 -69 -190 -87 -38 -18 -146 -66 -239 -107
-154 -68 -189 -89 -173 -106 7 -7 157 59 427 187 113 54 223 103 245 110 47
15 65 27 65 46 0 19 1 19 -135 -43z"/>
<path d="M1466 3664 c-9 -23 -3 -26 29 -18 26 7 27 8 10 20 -24 18 -32 18 -39
-2z"/>
<path d="M2412 3473 c-67 -36 -121 -71 -119 -77 2 -6 64 -41 138 -78 l134 -66
105 56 c58 31 117 62 132 70 30 15 45 32 28 32 -6 0 -73 29 -149 65 -75 36
-139 65 -142 64 -2 -1 -59 -30 -127 -66z"/>
<path d="M2200 3184 l0 -186 48 39 c26 22 91 70 144 107 54 37 100 71 103 76
3 5 -32 26 -77 47 -46 21 -111 52 -146 70 -35 18 -65 33 -68 33 -2 0 -4 -84
-4 -186z"/>
<path d="M2863 3355 c-11 -8 -79 -44 -151 -80 -71 -35 -132 -70 -134 -77 -2
-7 -1 -91 2 -185 l5 -172 155 77 155 78 3 187 c1 103 -1 187 -6 187 -4 0 -17
-7 -29 -15z m-53 -202 c0 -17 -61 -111 -96 -148 -59 -63 -52 -25 13 70 50 73
83 104 83 78z"/>
<path d="M3300 3180 l-255 -5 -3 -22 -3 -23 466 0 466 0 -3 28 -3 27 -205 0
c-113 0 -320 -2 -460 -5z"/>
<path d="M1060 3155 l0 -25 470 0 470 0 0 25 0 25 -470 0 -470 0 0 -25z"/>
<path d="M2501 3167 c-6 -8 -67 -54 -136 -103 -69 -48 -125 -91 -125 -94 0 -7
263 -130 278 -130 9 0 12 48 12 170 0 94 -4 170 -9 170 -5 0 -14 -6 -20 -13z"/>
<path d="M2000 2942 c-104 -51 -521 -246 -611 -285 -31 -14 -59 -29 -63 -35
-18 -30 29 -14 198 68 103 49 188 90 190 90 2 0 77 35 167 78 90 44 178 85
196 91 18 7 38 19 44 27 22 27 -24 14 -121 -34z"/>
<path d="M3006 2974 c-10 -26 -7 -34 14 -34 21 0 91 -24 125 -42 11 -6 52 -27
90 -46 39 -19 72 -37 75 -41 3 -3 73 -40 155 -81 83 -41 166 -84 185 -96 51
-31 80 -38 80 -21 0 9 -136 83 -359 196 -291 147 -360 178 -365 165z"/>
<path d="M2007 2638 c-232 -255 -240 -265 -233 -283 10 -28 31 -14 101 66 39
44 134 149 213 232 78 84 141 159 140 167 -8 42 -43 14 -221 -182z"/>
<path d="M2720 2805 c-9 -11 -10 -19 -3 -26 14 -14 43 0 43 22 0 23 -23 25
-40 4z"/>
<path d="M2893 2805 c-3 -9 1 -23 9 -33 117 -135 355 -398 364 -400 6 -2 17 4
23 12 16 19 26 5 -199 255 -90 100 -169 181 -177 181 -7 0 -16 -7 -20 -15z"/>
<path d="M2380 2790 c0 -5 -47 -119 -104 -252 -56 -134 -106 -252 -110 -263
-4 -11 -28 -66 -53 -123 -43 -94 -49 -123 -25 -108 5 3 21 34 35 68 157 386
193 473 221 538 18 41 38 87 44 103 7 15 16 27 22 27 5 0 10 5 10 10 0 6 -9
10 -20 10 -11 0 -20 -4 -20 -10z"/>
<path d="M2530 2216 l0 -396 25 0 25 0 -2 393 -3 392 -22 3 -23 3 0 -395z"/>
<path d="M370 1587 c-91 -26 -170 -94 -216 -187 -24 -48 -28 -67 -28 -145 -1
-77 3 -98 26 -147 33 -70 106 -145 173 -178 42 -20 65 -24 141 -24 86 0 96 2
168 38 43 21 80 45 83 53 4 9 -12 33 -43 64 l-50 49 -33 -24 c-78 -58 -181
-55 -256 7 -176 144 -8 420 208 343 21 -8 47 -22 58 -32 19 -17 21 -16 70 32
31 30 49 56 47 68 -2 12 -28 31 -71 54 -58 29 -81 35 -150 38 -49 2 -100 -1
-127 -9z"/>
<path d="M1039 1587 c-100 -28 -191 -105 -233 -196 -16 -36 -21 -65 -21 -136
0 -82 3 -97 33 -157 38 -77 92 -130 171 -167 47 -22 70 -26 141 -26 74 0 93 4
144 29 73 36 136 97 172 168 24 45 28 65 29 138 0 72 -4 94 -27 142 -76 163
-250 250 -409 205z m144 -148 c81 -22 147 -110 147 -197 0 -139 -171 -238
-298 -173 -47 24 -66 45 -91 101 -52 115 7 231 139 271 36 11 60 10 103 -2z"/>
<path d="M1698 1592 c-13 -6 -4 -20 50 -78 82 -87 277 -295 402 -429 51 -55
96 -101 100 -103 14 -5 21 138 18 373 l-3 230 -62 3 -63 3 -2 -187 -3 -186
-155 168 c-211 230 -194 214 -232 213 -18 0 -40 -3 -50 -7z"/>
<path d="M3597 1578 c-12 -13 -89 -101 -171 -196 -139 -164 -169 -192 -183
-179 -9 10 83 132 199 264 l108 123 -53 0 -53 0 -92 -115 c-51 -63 -97 -115
-102 -115 -5 0 -51 52 -101 115 l-92 115 -84 0 c-45 0 -83 -2 -83 -5 0 -3 28
-40 63 -83 122 -149 197 -244 197 -250 0 -4 -57 -74 -126 -157 -69 -82 -129
-158 -135 -167 -9 -17 -3 -18 80 -18 l89 0 82 98 c45 53 90 103 100 110 16 12
27 2 106 -98 l88 -110 83 0 c46 0 83 3 83 7 0 7 -80 113 -169 223 -34 41 -61
77 -61 80 0 5 32 44 184 226 28 32 65 75 84 96 19 20 31 41 28 47 -12 18 -45
12 -69 -11z"/>
<path d="M1580 1250 l0 -340 69 0 c63 0 69 2 75 23 3 12 6 103 6 202 l1 180
31 -35 c42 -47 233 -252 297 -317 l50 -53 66 0 65 0 -16 25 c-9 14 -22 29 -28
33 -7 4 -54 52 -106 107 -51 55 -146 154 -209 220 -64 66 -152 160 -197 208
-44 48 -86 87 -92 87 -9 0 -12 -90 -12 -340z"/>
<path d="M2358 1433 c-4 -229 -4 -496 1 -510 2 -10 55 -13 222 -13 l219 0 0
70 0 70 -143 0 c-98 0 -147 4 -155 12 -7 7 -12 34 -12 60 l0 48 139 0 c158 0
151 -4 151 86 l0 54 -122 0 c-171 0 -170 0 -166 69 l3 56 152 3 c174 3 167 -1
161 98 l-3 49 -222 3 -223 2 -2 -157z"/>
<path d="M3770 1250 l0 -341 68 3 67 3 0 335 0 335 -67 3 -68 3 0 -341z"/>
<path d="M4367 1568 c-28 -46 -147 -268 -232 -433 -48 -93 -92 -174 -96 -179
-5 -6 -9 -18 -9 -28 0 -16 9 -18 69 -18 47 0 74 5 84 14 8 8 36 57 62 108 26
51 77 146 113 211 53 98 67 117 77 105 21 -22 103 -176 97 -182 -3 -3 -18 -6
-34 -6 -28 0 -33 -7 -84 -115 -30 -63 -54 -120 -54 -126 0 -21 87 -3 166 35
42 20 82 36 90 36 8 0 22 -17 31 -37 l18 -38 78 -3 c52 -2 77 1 77 8 0 11 -39
87 -102 200 -14 25 -61 110 -105 190 -171 311 -150 280 -194 280 -29 0 -42 -5
-52 -22z"/>
<path d="M4701 1563 c-17 -16 -33 -41 -37 -58 l-6 -30 23 32 c23 31 81 63 117
63 15 0 15 2 2 10 -28 18 -69 11 -99 -17z"/>
<path d="M1866 807 c-14 -10 -17 -21 -12 -40 3 -14 1 -38 -6 -52 -10 -21 -9
-29 5 -43 14 -14 22 -14 48 -5 17 7 38 9 47 6 15 -6 15 -4 4 10 -8 9 -10 22
-6 28 4 8 3 9 -5 5 -6 -4 -18 0 -27 9 -15 15 -15 17 1 35 35 39 -6 79 -49 47z
m44 -7 c18 -11 3 -43 -24 -48 -21 -4 -32 24 -16 43 14 17 20 18 40 5z m-1 -88
c12 -22 -3 -42 -30 -42 -22 0 -33 28 -18 46 16 19 36 17 48 -4z"/>
<path d="M2254 791 c21 -23 26 -26 26 -11 0 5 -10 15 -22 21 -23 12 -23 12 -4
-10z"/>
<path d="M222 733 c2 -64 2 -65 5 -15 2 28 7 52 11 52 4 0 20 -23 37 -50 29
-51 45 -62 45 -35 0 8 -6 15 -13 15 -8 0 -26 23 -41 50 -15 28 -31 50 -37 50
-5 0 -8 -30 -7 -67z"/>
<path d="M313 755 c0 -27 2 -38 4 -22 2 15 2 37 0 50 -2 12 -4 0 -4 -28z"/>
<path d="M426 792 c-2 -4 13 -6 35 -4 21 2 39 6 39 8 0 7 -69 4 -74 -4z"/>
<path d="M592 794 c8 -7 88 -8 95 0 4 3 -18 6 -47 6 -29 0 -51 -3 -48 -6z"/>
<path d="M761 784 c0 -11 3 -14 6 -6 3 7 2 16 -1 19 -3 4 -6 -2 -5 -13z"/>
<path d="M826 781 c-5 -13 -4 -26 1 -30 6 -3 16 -23 22 -43 18 -54 36 -47 55
20 21 77 19 92 -4 22 -9 -30 -21 -55 -27 -57 -5 -2 -16 23 -24 54 -13 50 -17
55 -23 34z"/>
<path d="M970 774 c-14 -37 -12 -67 6 -90 15 -18 15 -18 5 3 -17 34 -13 71 9
93 16 16 17 20 5 20 -9 0 -20 -12 -25 -26z"/>
<path d="M1044 788 c14 -11 18 -24 15 -60 -4 -47 4 -56 15 -15 8 35 -8 81 -30
85 -18 4 -18 3 0 -10z"/>
<path d="M1140 792 c0 -4 16 -6 35 -4 29 4 36 0 44 -19 5 -13 10 -19 10 -12 2
31 -12 43 -50 43 -21 0 -39 -4 -39 -8z"/>
<path d="M1301 775 c0 -24 10 -38 47 -70 46 -39 46 -39 24 -8 -13 18 -28 35
-33 39 -6 4 1 19 18 38 l28 31 -32 -29 c-24 -22 -34 -26 -37 -15 -2 8 -7 21
-9 29 -3 8 -6 2 -6 -15z"/>
<path d="M1471 733 c1 -62 2 -65 11 -34 l9 34 36 -34 36 -34 -27 36 -27 37 27
31 c14 17 21 31 16 31 -5 0 -17 -11 -26 -25 -9 -14 -21 -25 -26 -25 -6 0 -10
11 -10 25 0 14 -4 25 -10 25 -6 0 -10 -29 -9 -67z"/>
<path d="M2375 789 c-11 -17 1 -21 15 -4 8 9 8 15 2 15 -6 0 -14 -5 -17 -11z"/>
<path d="M2454 778 c20 -29 20 -58 -1 -87 -12 -18 -13 -23 -2 -19 33 11 32
128 -1 128 -7 0 -5 -9 4 -22z"/>
<path d="M2561 743 c2 -54 2 -55 8 -18 l7 40 26 -50 c32 -58 36 -54 9 7 -11
24 -22 51 -25 61 -12 38 -26 15 -25 -40z"/>
<path d="M2682 773 c-6 -16 -18 -46 -27 -68 -13 -29 -13 -36 -3 -28 7 7 22 35
32 62 10 28 22 48 27 45 5 -3 10 -31 11 -62 1 -53 2 -54 5 -13 8 83 -23 125
-45 64z"/>
<path d="M2822 733 c1 -60 2 -62 5 -18 5 60 19 79 29 39 9 -40 33 -84 44 -84
5 0 19 18 30 40 19 37 49 58 36 25 -3 -8 -1 -25 4 -37 7 -18 9 -8 9 40 1 78
-13 79 -49 4 -13 -29 -27 -52 -30 -52 -3 0 -16 25 -29 55 -34 78 -51 73 -49
-12z"/>
<path d="M3083 740 c0 -36 2 -50 4 -32 2 17 2 47 0 65 -2 17 -4 3 -4 -33z"/>
<path d="M3172 755 c-2 -54 -9 -69 -32 -78 -13 -4 -12 -6 1 -6 29 -2 40 25 36
81 l-3 53 -2 -50z"/>
<path d="M3260 748 c0 -29 5 -60 10 -68 7 -11 10 0 10 38 0 36 4 51 11 46 8
-4 8 0 0 15 -19 35 -31 24 -31 -31z"/>
<path d="M3340 758 l0 -41 -21 19 -22 19 17 -32 c22 -44 36 -41 36 6 0 22 3
46 6 55 3 9 1 16 -5 16 -6 0 -11 -18 -11 -42z"/>
<path d="M3433 735 c0 -38 2 -53 4 -32 2 20 2 52 0 70 -2 17 -4 1 -4 -38z"/>
<path d="M3556 790 c6 -6 21 -6 39 -1 30 9 30 9 -9 10 -26 1 -37 -2 -30 -9z"/>
<path d="M3784 769 l-17 -33 -24 29 -25 30 16 -32 c9 -18 16 -46 16 -63 0 -18
4 -29 10 -25 6 3 10 16 10 28 0 12 9 37 21 56 11 18 18 35 15 38 -2 3 -12 -10
-22 -28z"/>
<path d="M4185 788 c-38 -106 -44 -135 -20 -101 12 17 20 20 49 13 33 -7 34
-7 26 19 -20 68 -44 98 -55 69z m45 -60 c0 -5 -11 -8 -25 -8 -27 0 -31 10 -14
42 11 21 12 21 25 -3 7 -13 13 -27 14 -31z"/>
<path d="M4351 733 c1 -47 3 -59 8 -38 5 25 12 31 40 35 72 11 63 70 -10 70
l-39 0 1 -67z m82 43 c8 -20 -13 -36 -45 -36 -23 0 -28 4 -28 25 0 22 4 25 34
25 20 0 36 -6 39 -14z"/>
<path d="M4531 733 c1 -47 3 -59 8 -38 5 26 11 30 41 33 44 4 54 14 46 46 -6
23 -11 26 -51 26 l-45 0 1 -67z m85 45 c9 -15 -25 -40 -51 -36 -12 2 -21 12
-23 26 -3 19 1 22 32 22 19 0 38 -5 42 -12z"/>
<path d="M2186 774 c-17 -44 -1 -104 29 -104 5 0 4 4 -4 9 -8 5 -14 28 -14 60
-1 56 -2 59 -11 35z"/>
<path d="M774 745 c3 -11 8 -32 12 -47 3 -16 10 -28 14 -28 10 0 23 50 15 58
-3 3 -5 -2 -5 -11 0 -9 -4 -17 -10 -17 -5 0 -10 8 -10 18 0 9 -5 24 -11 32 -8
12 -9 11 -5 -5z"/>
<path d="M1130 746 c0 -12 9 -16 38 -15 27 1 30 3 12 6 -14 3 -31 10 -37 15
-10 8 -13 6 -13 -6z"/>
<path d="M2361 737 c-1 -33 15 -67 32 -67 8 0 8 3 -2 9 -8 5 -17 26 -21 47 -6
33 -8 34 -9 11z"/>
<path d="M643 715 c0 -22 2 -30 4 -17 2 12 2 30 0 40 -3 9 -5 -1 -4 -23z"/>
<path d="M3567 718 c8 -46 13 -48 13 -5 0 21 -4 37 -10 37 -5 0 -7 -14 -3 -32z"/>
<path d="M438 733 c12 -2 30 -2 40 0 9 3 -1 5 -23 4 -22 0 -30 -2 -17 -4z"/>
<path d="M420 688 c0 -15 8 -18 48 -16 47 1 47 1 7 5 -22 3 -43 10 -47 16 -5
8 -8 6 -8 -5z"/>
<path d="M2260 684 c-17 -9 -20 -14 -9 -14 9 0 22 7 29 15 15 18 13 18 -20 -1z"/>
</g>
</svg>
